<svg height="512" viewBox="0 0 128 128" width="512" xmlns="http://www.w3.org/2000/svg"><g><path d="m72.506 78.842c13.347-31.133-.427-60.176-9.107-66.355-8.471 39.277-20.14 36.173-33.21 59.013z" fill="#5283c3"/><path d="m99.25 89.75a75.654 75.654 0 0 1 -14.021-4.438c4.432-3.414 6.287-7.636 5.646-11.187 7-3.25 7.625-9.292 6.75-11.875 7.125-2.5 6.183-11.875 4.375-14.375 8.5-3.625 8-15.625 2-18.042 0 0 5.25-13.333-3.333-23.333-18.63 38.056-29.38 29.512-49.467 52.64-3.946-3.833-8.918-7.281-14.2-8.015-9-1.25-21.119 6.74-30.5 9.125 0 0 10.956 5.516 12.5 15.25 2.875 18.125 18.375 36.875 34.875 34.5 36.5-5.75 42.125 2.167 50.375 11.5-.375-13.375 17.25-28.25 17.25-28.25s-4.5.125-22.25-3.5z" fill="#6aa8fb"/><path d="m34.7 96.955a1.746 1.746 0 0 1 -1.323-.6 44.521 44.521 0 0 1 -5.929-8.84 1.75 1.75 0 1 1 3.113-1.6 41.149 41.149 0 0 0 5.46 8.147 1.75 1.75 0 0 1 -1.321 2.893z" fill="#5283c3"/></g></svg>